<svg xmlns="http://www.w3.org/2000/svg" viewBox="0 0 400 300" width="406" height="306" class="illustration styles_illustrationTablet__1DWOa"><g id="_549_umrella_outline" data-name="#549_umrella_outline"><path d="M134.37,223a1,1,0,0,1-1-.81l-2.34-12.55a1,1,0,0,1,2-.37l2.34,12.55a1,1,0,0,1-.8,1.17Z" fill="#093f68"></path><path d="M129.16,211a1,1,0,0,1-.93-.63l-1.41-3.56a1,1,0,0,1,.06-.85,1,1,0,0,1,.69-.5l7.19-1.34a1,1,0,0,1,.83.22,1,1,0,0,1,.36.77l0,3.83a1,1,0,0,1-.81,1L129.34,211Zm5.75-2.07h0Zm-5.78-1.72.65,1.66,4.14-.77,0-1.79Z" fill="#093f68"></path><path d="M203.27,233.9V65.79a2.21,2.21,0,0,0-2.21-2.22h-.36a2.21,2.21,0,0,0-2.21,2.22V234.7" fill="#68e1fd"></path><path d="M198.49,235.7a1,1,0,0,1-1-1V65.79a3.22,3.22,0,0,1,3.21-3.22h.36a3.22,3.22,0,0,1,3.21,3.22V233.9a1,1,0,0,1-2,0V65.79a1.22,1.22,0,0,0-1.21-1.22h-.36a1.22,1.22,0,0,0-1.21,1.22V234.7A1,1,0,0,1,198.49,235.7Z" fill="#093f68"></path><path d="M124.86,134c0-35.77,34-64.76,76-64.76s76,29,76,64.76Z" fill="#68e1fd"></path><path d="M276.91,135h-152a1,1,0,0,1-1-1c0-36.26,34.56-65.76,77-65.76s77,29.5,77,65.76A1,1,0,0,1,276.91,135Zm-151-2h150c-.64-34.7-34-62.76-75-62.76S126.5,98.27,125.87,133Z" fill="#093f68"></path><path d="M151.33,134c0-35.77,22.19-64.76,49.55-64.76s49.56,29,49.56,64.76Z" fill="#fff"></path><path d="M250.44,135H151.33a1,1,0,0,1-1-1c0-36.26,22.68-65.76,50.55-65.76s50.56,29.5,50.56,65.76A1,1,0,0,1,250.44,135Zm-98.1-2h97.09c-.41-34.7-22-62.76-48.55-62.76S152.75,98.27,152.34,133Z" fill="#093f68"></path><path d="M180.05,134c0-35.77,9.33-64.76,20.83-64.76s20.84,29,20.84,64.76Z" fill="#68e1fd"></path><path d="M221.72,135H180.05a1,1,0,0,1-1-1c0-36.87,9.59-65.76,21.83-65.76S222.72,97.1,222.72,134A1,1,0,0,1,221.72,135Zm-40.67-2h39.67c-.18-34.12-9.19-62.76-19.84-62.76S181.22,98.85,181.05,133Z" fill="#093f68"></path><path d="M152,237.43c-1.65,0-3.45-.09-5.5-.27-4.78-.42-9.91-.85-15.14-1.1-3-.14-5.68-.21-8.28-.21a1,1,0,0,1,0-2c2.63,0,5.37.07,8.37.22,5.27.25,10.43.67,15.21,1.1a46.91,46.91,0,0,0,9.49,0c.28,0,.53-.07.79-.12a28.36,28.36,0,0,0,3.61-1c.58-.18,1.16-.37,1.74-.54s1.19-.32,1.79-.45l.66-.11c1.32-.22,2.7-.51,4.11-.82l.43-.1c4.51-1,9.18-2,13.62-1A27.39,27.39,0,0,1,186,232l1.39.47a27.65,27.65,0,0,0,12.45,1.06,54.24,54.24,0,0,0,5.5-1.15,34.11,34.11,0,0,1,9.83-1.4,33.76,33.76,0,0,1,7.28,1.42c1.12.3,2.27.61,3.41.86a32.66,32.66,0,0,0,10.1.59c.95-.09,1.92-.14,3-.17,1.52,0,3.1,0,4.87.13,1.36.07,2.74.18,4.12.28,2.73.21,5.55.43,8.25.39,3.36,0,6.78-.17,10.09-.3l2.7-.11a1,1,0,0,1,.07,2l-2.69.11c-3.32.13-6.76.26-10.14.3-2.81,0-5.66-.19-8.43-.4-1.36-.1-2.73-.2-4.09-.28-1.71-.1-3.25-.15-4.71-.12-1,0-1.92.08-2.81.16a34.5,34.5,0,0,1-10.72-.63c-1.18-.25-2.36-.57-3.5-.88A32.51,32.51,0,0,0,215,233a32.32,32.32,0,0,0-9.25,1.35c-1.84.45-3.76.92-5.68,1.19a29.75,29.75,0,0,1-13.35-1.14c-.48-.15-1-.32-1.44-.49a28.2,28.2,0,0,0-2.86-.88c-4-.91-8.45.07-12.74,1l-.43.09c-1.44.32-2.85.62-4.24.84l-.56.1q-.83.18-1.65.42c-.55.16-1.11.34-1.67.52a32.72,32.72,0,0,1-3.87,1.05c-.3,0-.61.11-.92.14A37.64,37.64,0,0,1,152,237.43Z" fill="#093f68"></path><path d="M162.57,210.63v23.88a54.91,54.91,0,0,1-5.45,1.55V210.63Z" fill="#68e1fd"></path><path d="M157.12,237.06a1,1,0,0,1-.64-.23,1,1,0,0,1-.36-.77V210.63a1,1,0,0,1,1-1h5.45a1,1,0,0,1,1,1v23.88a1,1,0,0,1-.72,1l-1.68.53a32.72,32.72,0,0,1-3.87,1.05Zm1-25.43v23.19c.83-.21,1.64-.47,2.44-.73l1-.32V211.63Z" fill="#093f68"></path><polygon points="247.81 213.57 247.82 213.57 247.82 213.56 247.81 213.57" fill="#68e1fd"></polygon><path d="M247.82,214.57a1,1,0,0,1-.92-.62,1,1,0,0,1,.21-1.09h0a1,1,0,0,1,1.7.71A1,1,0,0,1,247.82,214.57Zm.71-.3h0Z" fill="#093f68"></path><polygon points="152.31 208.95 152.31 213.57 247.81 213.57 247.82 213.56 270.69 186.5 267.17 183.52 245.67 208.95 152.31 208.95" fill="#68e1fd"></polygon><path d="M247.82,214.57H152.31a1,1,0,0,1-1-1V209a1,1,0,0,1,1-1h92.9l21.2-25.07a1,1,0,0,1,.68-.35,1,1,0,0,1,.73.23l3.52,3a1,1,0,0,1,.12,1.41l-22.87,27A1,1,0,0,1,247.82,214.57Zm-94.51-2h94.05l21.93-25.95-2-1.69L246.43,209.6a1,1,0,0,1-.76.35H153.31Z" fill="#093f68"></path><polyline points="243.7 234.81 243.7 213.56 238.92 213.56 238.92 234.69" fill="#68e1fd"></polyline><path d="M243.7,235.81a1,1,0,0,1-1-1V214.56h-2.78v20.13a1,1,0,0,1-2,0V213.56a1,1,0,0,1,1-1h4.78a1,1,0,0,1,1,1v21.25A1,1,0,0,1,243.7,235.81Z" fill="#093f68"></path><path d="M148.94,216.18l-2.35,20h0c-5.07-.45-10.12-.86-15.17-1.1l-1.1-.21-2.56-18.67Z" fill="#f56132"></path><path d="M146.59,237.16c-4.86-.42-10-.85-15.22-1.1h-.14l-1.1-.21a1,1,0,0,1-.81-.85l-2.56-18.67a1,1,0,0,1,.24-.79,1,1,0,0,1,.75-.35h21.19a1,1,0,0,1,1,1.12l-2.35,20A1,1,0,0,1,146.59,237.16Zm-15.06-3.09c4.9.23,9.69.62,14.18,1l2.11-17.9H128.9L131.21,234Z" fill="#093f68"></path><rect x="247.96" y="184.14" width="5.5" height="26.27" rx="2.75" transform="translate(315.94 509.56) rotate(-139.99)" fill="#fff"></rect><path d="M244,209a3.72,3.72,0,0,1-2.41-.88h0a3.74,3.74,0,0,1-.46-5.28l13.35-15.91a3.75,3.75,0,1,1,5.74,4.82l-13.35,15.91A3.74,3.74,0,0,1,244,209Zm-1.13-2.41a1.76,1.76,0,0,0,2.47-.22l13.35-15.91a1.75,1.75,0,0,0-1.49-2.87,1.72,1.72,0,0,0-1.19.62L242.7,204.1a1.76,1.76,0,0,0,.21,2.47Z" fill="#093f68"></path></g></svg>